<?xml version="1.0" encoding="UTF-8"?>
<svg id="Calque_2" data-name="Calque 2" xmlns="http://www.w3.org/2000/svg" viewBox="0 0 31.85 25.14">
  <defs>
    <style>
      .cls-1 {
        fill: #ff6d32;
      }
    </style>
  </defs>
  <g id="visuels">
    <path class="cls-1" d="M30.37,10.6c0-.31.43-.84.66-.87.28-.04.82.45.82.75l-.02,12.38c0,1.22-1,2.27-2.29,2.27H2.33c-1.26,0-2.33-1.04-2.33-2.29V3.19C0,2.67.59,1.8.98,1.59c.43-.23,1.45-.35,1.97.04l13.46,10.03L28.72,2.86c.18-.13.41-.77.36-.98s-.58-.4-.86-.4H9.44c-.29,0-.81-.41-.86-.66C8.53.51,9.01,0,9.44,0h19c.86,0,1.81.62,2.03,1.24.27.77.08,2.09-.7,2.65l-12.34,8.87c1.63,2.32,2.93,9.25-.93,9.06-1.2-.06-1.99-.86-2.41-2.08-.34-2.33.15-4.75,1.41-6.92L1.64,2.52l-.15,20.13c0,.58.55,1.03,1.14,1.06h26.65c.63,0,1.1-.44,1.1-1.03v-12.08ZM16.45,14.22c-.99,1.4-1.74,6.47.24,6.11,1.7-.3.63-5.16-.24-6.11Z"/>
  </g>
</svg>