<?xml version="1.0" encoding="UTF-8"?>
<svg id="Calque_2" data-name="Calque 2" xmlns="http://www.w3.org/2000/svg" viewBox="0 0 68.91 68.91">
  <defs>
    <style>
      .cls-1 {
        fill: #fff;
      }

      .cls-2 {
        fill: #ff6d32;
      }
    </style>
  </defs>
  <g id="visuels">
    <circle class="cls-1" cx="34.45" cy="34.45" r="34.45"/>
    <g>
      <path class="cls-2" d="M42.02,49.34c-4.99.37-9.59.28-14.33.13-4.51-.15-7.99-3.46-8.19-8.08s-.19-9.15-.01-13.85c.16-4.14,3.16-7.65,7.35-7.96,5.06-.38,10.03-.36,15.11,0,3.95.28,7.09,3.37,7.38,7.36.37,5.07.36,10.02,0,15.12-.27,3.77-3.29,6.99-7.31,7.29ZM41.59,46.66c2.89-.14,4.98-2.56,5.09-5.2.2-4.72.2-9.25.01-13.94-.12-2.96-2.42-5.17-5.34-5.29-4.71-.19-9.2-.19-13.9.01-2.86.13-5.09,2.4-5.22,5.28-.2,4.69-.21,9.25,0,13.92.14,3.09,2.63,5.24,5.62,5.31,4.57.1,8.92.14,13.73-.09Z"/>
      <path class="cls-2" d="M32.65,26.94c4.43-1.07,8.43,1.7,9.37,5.78s-1.56,8.38-5.89,9.32c-3.92.85-7.98-1.41-9.14-5.53-1.1-3.94,1.08-8.47,5.65-9.57ZM33.51,29.54c-3.07.63-4.63,3.6-3.85,6.29.72,2.49,3.14,4.21,6.13,3.45,2.27-.57,4.26-3.07,3.55-6.04-.52-2.17-2.91-4.31-5.83-3.71Z"/>
      <path class="cls-2" d="M41.91,24.69c.87-.24,2.07.34,2.32,1.1.23.68-.29,1.96-.96,2.23-.76.3-1.85,0-2.21-.55-.61-.91-.28-2.47.85-2.78Z"/>
    </g>
  </g>
</svg>