<?xml version="1.0" encoding="UTF-8"?>
<svg id="Calque_2" data-name="Calque 2" xmlns="http://www.w3.org/2000/svg" viewBox="0 0 21.04 34.12">
  <defs>
    <style>
      .cls-1 {
        fill: #ff6d32;
      }
    </style>
  </defs>
  <g id="visuels">
    <path class="cls-1" d="M11.91,6.37c2.33,1.21,4.43,3.24,3.23,5.77s-2.44,4.69-3.95,6.89c-1.72,2.53-4.53,1.65-6.73.34l-1.15,1.87c-.16.25-.78.49-1.03.38s-.45-.8-.31-1.04l1.42-2.52c.65-1.16,1.8.03,3.81.93,1.03.46,2.36-.05,2.92-1.01l3.42-5.87c.82-1.41.29-2.9-1.14-3.64-.89-.46-1.65-.98-2.44-1.74L13.91,0c2.65.87,4.87,2.41,6.13,4.81,2.96,5.65-1.25,13.48-4.86,17.94-1.4,1.73-3.19,2.98-5.02,4.22,1.25,1.36,6.53,5.72,5.82,6.99-.13.24-.91.22-1.1,0-2.02-2.25-4.14-4.48-6.49-6.47C6.07,28.41-.16,28.62,0,25.62c.05-.95.83-1.79,1.82-2.02,2.56-.59,4.82.45,6.81,2.19,5.04-1.86,8.71-8.25,10.31-12.99,1.61-4.76.23-8.83-4.4-10.98l-2.63,4.54ZM6.63,26.32c-1.44-1.46-3.05-1.52-4.65-1.24-.16.19-.56.61-.42.74l.5.46c1.49.4,3.05.53,4.57.04Z"/>
  </g>
</svg>