<?xml version="1.0" encoding="UTF-8"?>
<svg id="Calque_2" data-name="Calque 2" xmlns="http://www.w3.org/2000/svg" viewBox="0 0 68.91 68.91">
  <defs>
    <style>
      .cls-1 {
        fill: #fff;
      }

      .cls-2 {
        fill: #ff6d32;
      }
    </style>
  </defs>
  <g id="visuels">
    <circle class="cls-1" cx="34.45" cy="34.45" r="34.45"/>
    <path class="cls-2" d="M46.05,44.72c-7.33.55-14.33.49-21.47,0-2-.13-3.66-1.58-3.93-3.55-.61-4.47-.61-8.89,0-13.38.26-1.95,1.88-3.43,3.87-3.58,7.16-.51,14.21-.53,21.35-.02,2.23.16,3.85,1.63,4.11,3.8.53,4.36.54,8.61,0,12.98-.24,1.92-1.73,3.57-3.93,3.73ZM39.98,34.46l-7.73-4.42v8.9s7.73-4.48,7.73-4.48Z"/>
  </g>
</svg>