<?xml version="1.0" encoding="UTF-8"?>
<svg id="Calque_2" data-name="Calque 2" xmlns="http://www.w3.org/2000/svg" viewBox="0 0 68.91 68.91">
  <defs>
    <style>
      .cls-1 {
        fill: #fff;
      }

      .cls-2 {
        fill: #ff6d32;
      }
    </style>
  </defs>
  <g id="visuels">
    <circle class="cls-1" cx="34.45" cy="34.45" r="34.45"/>
    <g>
      <path class="cls-2" d="M39.78,34.18c-4.97-.47-2.78,9-3.36,12.28h-4.97s-.02-15.95-.02-15.95l3.93-.14c.42-.02,1.14,1.19,1.28,1.59,1.87-1.79,4.33-2.63,6.76-1.85,2.23.72,3.78,2.96,3.79,5.66l.05,10.67-5.01.08-.03-9.46c0-1.46-1.07-2.75-2.4-2.88Z"/>
      <polygon class="cls-2" points="28.47 46.48 23.46 46.49 23.44 30.47 28.48 30.46 28.47 46.48"/>
      <path class="cls-2" d="M25.03,22.58c1.59-.52,3.23.37,3.65,1.8s-.16,3.03-1.83,3.68c-1.11.43-2.92-.28-3.45-1.38-.79-1.63-.13-3.53,1.63-4.1Z"/>
    </g>
  </g>
</svg>