<?xml version="1.0" encoding="UTF-8"?>
<svg id="logo" xmlns="http://www.w3.org/2000/svg" viewBox="0 0 1080 1080">
  <defs>
    <style>
      .cls-1 {
        fill: #fff;
      }

      .cls-2 {
        fill: #ff6d32;
      }
    </style>
  </defs>
  <circle class="cls-1" cx="540" cy="540" r="540.09"/>
  <g>
    <circle cx="378.61" cy="702.54" r="59.84"/>
    <path class="cls-2" d="M373.8,559.01c21.66,15.02,61.46,28.93,119.39,41.73l58.93,12.92c34.5,7.4,59.7,15.89,75.59,25.49,15.87,9.85,23.82,23.76,23.82,41.73,0,28.37-13.95,48.37-41.48,60.21l76.92,67.62c5.8-3.86,11.37-7.95,16.59-12.41,38.45-32.87,57.68-74.17,57.68-123.91s-16.23-85.56-48.69-111.16c-20.89-16.49-52.27-29.67-94.15-39.53l-95.54-22.52c-36.86-8.62-60.96-16.13-72.33-22.53-17.66-9.6-26.51-24.13-26.51-43.58,0-21.18,8.96-37.67,26.89-49.5,17.93-11.81,41.89-17.72,71.94-17.72,27.01,0,49.6,4.55,67.78,13.66,27.26,13.79,41.89,37.06,43.92,69.8h109.32c-1.99-57.86-23.49-101.99-64.49-132.4-41.01-30.4-90.55-45.61-148.63-45.61-69.54,0-122.25,16.13-158.15,48.38-35.9,32.27-53.84,72.77-53.84,121.52,0,53.43,18.34,92.71,55.04,117.82Z"/>
  </g>
</svg>