<?xml version="1.0" encoding="UTF-8"?>
<svg id="tracés2" xmlns="http://www.w3.org/2000/svg" viewBox="0 0 3840 2160">
  <defs>
    <style>
      .cls-1 {
        fill: #ff6d32;
      }
    </style>
  </defs>
  <path class="cls-1" d="M533.22,1190.37c-.46-21.37-.86-42.75-.86-64.13,0-19.26.37-38.51,1.05-57.75.45-12.67,1.02-25.34,1.64-38.01.09-1.93-2.91-1.92-3,0-1.05,21.35-1.94,42.71-2.37,64.09-.39,19.25-.38,38.51-.14,57.77.16,12.68.41,25.36.68,38.04.04,1.93,3.04,1.93,3,0h0Z"/>
  <circle cx="531.13" cy="1188.12" r="15.34"/>
  <path class="cls-1" d="M1532.12,956.89c-21.33,13.01-42.66,26.01-63.99,39.02s-42.66,26.01-63.99,39.02c-21.33,13.01-42.66,26.01-63.99,39.02s-42.52,25.93-63.77,38.89-42.32,25.83-63.5,38.71c-20.81,12.65-41.66,25.22-62.71,37.47-20.98,12.21-42.15,24.1-63.61,35.45-20.88,11.04-42.03,21.58-63.4,31.62-21.4,10.05-43.04,19.61-64.9,28.64-21.76,8.99-43.73,17.47-65.88,25.43-5.41,1.94-10.83,3.85-16.26,5.74-1.81.63-1.03,3.53.8,2.89,22.32-7.73,44.46-15.99,66.39-24.76,21.9-8.76,43.61-18.03,65.08-27.81,21.5-9.79,42.76-20.08,63.78-30.87,21.42-10.99,42.55-22.53,63.45-34.47s42.21-24.61,63.12-37.24,42.27-25.7,63.39-38.58,42.66-26.01,63.99-39.02,42.66-26.01,63.99-39.02,42.66-26.01,63.99-39.02c21.33-13.01,42.66-26.01,63.99-39.02,5.19-3.16,10.38-6.33,15.57-9.49,1.65-1,.14-3.6-1.51-2.59h0Z"/>
  <circle cx="1535.59" cy="955.42" r="15.34"/>
  <path class="cls-1" d="M1872.15,1510.9c-16.15-16.88-32.35-33.71-48.45-50.64-14.94-15.72-29.65-31.84-41.51-50.06-6.64-10.2-12.37-20.99-19.96-30.55-1.2-1.51-3.31.62-2.12,2.12,6.81,8.57,12.06,18.21,17.89,27.44,5.75,9.11,12.23,17.74,19.11,26.03,14.22,17.13,30,32.93,45.38,49,9.18,9.59,18.36,19.19,27.55,28.78,1.34,1.4,3.46-.73,2.12-2.12h0Z"/>
  <circle cx="1870.3" cy="1509" r="15.34"/>
  <path class="cls-1" d="M2761.25,646.12c-9.42,14.26-17.92,29.1-25.81,44.26-7.9,15.18-15.18,30.68-22.21,46.28-7.07,15.71-13.89,31.53-20.83,47.3-7.08,16.08-14.34,32.07-21.93,47.92-7.74,16.18-15.76,32.22-23.97,48.17-8.21,15.95-16.6,31.81-25.1,47.61-8.5,15.81-17.1,31.56-25.72,47.31s-17.26,31.48-25.84,47.25c-8.57,15.76-17.08,31.56-25.44,47.43-8.38,15.91-16.64,31.89-24.86,47.88-8.18,15.93-16.32,31.88-24.5,47.81s-16.4,31.83-24.74,47.67-16.81,31.6-25.48,47.25-17.55,31.18-26.71,46.55c-8.55,14.35-17.36,28.56-26.47,42.56-8.76,13.45-17.8,26.72-27.16,39.75-9.41,13.1-19.15,25.96-29.26,38.52s-20.44,24.65-31.24,36.46-21.94,23.23-33.53,34.22c-11.58,10.99-23.57,21.54-35.99,31.58-6.04,4.88-12.18,9.63-18.41,14.24-1.53,1.14-.04,3.74,1.51,2.59,12.89-9.54,25.37-19.63,37.42-30.21,11.99-10.53,23.57-21.55,34.73-32.95,11.23-11.48,22.06-23.36,32.49-35.56s20.43-24.66,30.12-37.41c9.76-12.83,19.16-25.93,28.26-39.24,9.05-13.24,17.8-26.69,26.28-40.3,9.36-15.02,18.4-30.24,27.2-45.59,8.9-15.52,17.55-31.18,26.04-46.93s16.89-31.74,25.17-47.7c8.28-15.97,16.47-31.98,24.67-47.99s16.32-31.88,24.56-47.78,16.6-31.76,25.07-47.55c8.53-15.88,17.16-31.71,25.82-47.53s17.34-31.62,25.96-47.46,17.09-31.56,25.47-47.43c8.41-15.94,16.67-31.95,24.69-48.08,7.99-16.06,15.75-32.23,23.19-48.55s14-31.51,20.92-47.3,13.83-31.37,21.22-46.83,15.25-30.77,23.89-45.6c4.17-7.16,8.52-14.2,13.09-21.11,1.07-1.62-1.53-3.12-2.59-1.51h0Z"/>
  <circle cx="2759.98" cy="647.34" r="15.34"/>
  <path class="cls-1" d="M3039.96,1199.26c1.16-19.34-1.64-38.6-4.55-57.67-2.92-19.14-5.41-38.31-7.16-57.59s-2.89-38.71-3.63-58.1c-.74-19.34-1.07-38.69-1.19-58.03-.12-19.44-.02-38.88.1-58.31.01-2.38.03-4.75.05-7.13.01-1.93-2.99-1.93-3,0-.12,19.43-.25,38.87-.18,58.31s.33,38.7.97,58.05c.64,19.4,1.67,38.79,3.27,58.13,1.59,19.23,3.79,38.4,6.66,57.48,2.88,19.15,6.19,38.36,5.92,57.79-.03,2.37-.12,4.73-.26,7.09-.12,1.93,2.88,1.92,3,0h0Z"/>
  <circle cx="3038.31" cy="1199.69" r="15.34"/>
</svg>