<?xml version="1.0" encoding="UTF-8"?>
<svg id="tracés" xmlns="http://www.w3.org/2000/svg" viewBox="0 0 3840 2160">
  <defs>
    <style>
      .cls-1 {
        fill: #ff6d32;
      }
    </style>
  </defs>
  <path class="cls-1" d="M1589.76,1499.9c20.68-7.9,41.43-15.64,61.76-24.41s41.36-19.44,61.13-30.94c37.93-22.08,74.98-45.52,114.46-64.83,21.69-10.61,43.78-20.63,66-30.07,23.19-9.86,47.09-17.97,70.82-26.4,23.82-8.46,47.75-15.34,72.69-19.62s51.8-6.38,77.9-6.48c47.51-.18,95.93,7.13,139.18,27.62,15.82,7.49,30.77,17.2,42.41,30.41,12.09,13.73,19.62,30.63,23.38,48.43,2.11,10,3.27,20.3,3.08,30.53-.2,10.42-2.91,20.02-6.9,29.6-6.56,15.75-16.04,30.79-29.91,41.11-15.38,11.45-33.93,17.77-53.07,17.86-20.51.09-41.04-5.37-59.65-13.76-17.84-8.04-34.41-19.03-47.37-33.8-13.94-15.9-24.14-34.87-32.72-54.09-8.87-19.88-16.54-40.6-22.81-61.45-7.44-24.73-11.96-50.2-16.43-75.6-2.18-12.43-4.37-24.86-6.86-37.23-.38-1.89-3.27-1.09-2.89.8,5.24,26.05,9.08,52.36,14.6,78.35,5.1,24,12.39,47.23,21.01,70.18,14.39,38.33,32.81,78.37,67.79,102.02,16.8,11.36,35.98,19.62,55.74,24.12,18.61,4.24,38.84,5.36,57.17-.78,17.68-5.92,32.51-16.63,43.93-31.23,4.96-6.34,8.76-13.23,12.1-20.55,3.84-8.4,7.4-17.34,8.63-26.55,2.62-19.74-1.19-41.95-8.56-60.38-6.39-15.98-16.59-30.01-29.81-41.03-14-11.67-30.48-19.88-47.39-26.41-23.14-8.94-47.32-14.9-71.91-18.1-51.32-6.68-104.73-3.18-155.12,8.21-24.72,5.59-48.41,14.76-72.23,23.26-23.62,8.43-46.81,17.43-69.68,27.76s-45.66,20.73-67.82,32.49c-19.33,10.26-38.18,21.37-56.95,32.61-20.46,12.25-40.82,24.72-62.05,35.61-19.93,10.23-40.53,19-61.39,27.16-11,4.3-22.04,8.48-33.07,12.69-1.79.68-1.01,3.58.8,2.89h0Z"/>
  <circle cx="2256.33" cy="1521.39" r="15.34"/>
  <path class="cls-1" d="M766.37,852.13c2.95,39.03,21.44,75.66,45.97,105.59,11.09,13.53,23.68,25.95,37.76,36.37,15.54,11.5,33.38,19.97,51.55,26.41,40.44,14.33,85.57,17.94,127.96,11.67,16.13-2.39,31.44-7.4,46-14.69,16.28-8.15,33.16-17.5,45.46-31.2,12.26-13.66,18.7-32.54,14.39-50.75-4.04-17.07-19.62-30.89-37.83-28.72-18.1,2.16-28.07,21.17-29.14,37.77-1.16,18.05,6.71,35.88,17.65,49.84,12.54,16.01,30.23,26.84,47.87,36.41,18.39,9.98,37.37,18.98,54.12,31.67,31.13,23.59,54.02,56.83,68.68,92.78,15.45,37.88,22.43,78.78,20.47,119.62-2.19,45.51-12.92,90.15-23.58,134.27-2.46,10.21-4.94,20.41-7.33,30.64-.44,1.88,2.45,2.68,2.89.8,9.87-42.23,21.19-84.23,27.25-127.24,2.96-21.02,4.72-42.29,3.97-63.53-.67-19.14-3.62-38.2-8.23-56.77-8.94-35.97-24.7-70.6-48.06-99.53-11.45-14.17-24.74-26.84-39.64-37.34-16.79-11.83-35.53-20.38-53.41-30.35s-34.31-20.93-45.79-37.5c-10.1-14.59-16.85-33.25-12.81-51.07,2.06-9.09,6.95-18.36,14.86-23.64,7.49-5,17.07-5,25.24-1.69,19.21,7.8,24.25,30.68,19.25,49.07s-19.29,31.09-34.6,40.88c-14.05,8.98-29.31,17.04-45.24,22.11-17.46,5.56-35.84,7.2-54.08,7.74-21.53.64-43.15-.99-64.25-5.4s-41.72-11.61-60.86-21.66c-14.74-7.74-27.95-17.56-39.95-29.09-27.04-25.99-48.87-59.27-58.72-95.66-2.46-9.1-4.11-18.39-4.82-27.79-.14-1.91-3.15-1.93-3,0h0Z"/>
  <circle cx="871.04" cy="1004.74" r="15.34"/>
  <circle cx="1247.82" cy="1440.19" r="15.34"/>
  <path class="cls-1" d="M2780.52,573.98c-12.8-21.88-33.05-38.39-55.85-49.05-25.81-12.07-54.42-16.44-82.73-16.78-30.86-.37-62.33,2.87-92.49,9.42-29.08,6.31-56.62,17.14-82.56,31.65-25.39,14.19-49.15,31.19-72.18,48.9-21.33,16.4-41.96,33.7-61.83,51.85-40.34,36.86-77.51,77.18-111.01,120.35-33.35,42.99-63.08,88.78-88.64,136.81-3.23,6.07-6.39,12.18-9.49,18.31-.87,1.72,1.72,3.24,2.59,1.51,24.14-47.81,52.32-93.56,84.14-136.65s67.57-83.84,106.32-121.14c39.28-37.82,81.82-73.22,127.65-102.87,24.46-15.82,50.42-29.58,78.23-38.48,29.42-9.42,60.3-13.83,91.05-15.83,54.45-3.54,115.83,4.17,153.4,48.25,4.06,4.76,7.65,9.88,10.81,15.28.97,1.67,3.57.16,2.59-1.51h0Z"/>
  <circle cx="2121.54" cy="935.38" r="15.34"/>
</svg>