<?xml version="1.0" encoding="UTF-8"?>
<svg id="tracés2" xmlns="http://www.w3.org/2000/svg" viewBox="0 0 3840 2160">
  <defs>
    <style>
      .cls-1 {
        fill: #ff6d32;
      }
    </style>
  </defs>
  <path class="cls-1" d="M2779.57,451.15c-11.08-15.05-24.77-27.85-40.19-38.38-13.89-9.48-28.9-16.89-44.82-22.29-16-5.43-32.6-8.94-49.34-11.12s-34.55-2.99-51.87-2.51c-16.9.47-33.79,2.14-50.44,5.06-15.18,2.66-30.23,6.37-44.75,11.57-19.28,6.9-38.1,15.18-56.45,24.27-18.55,9.18-36.63,19.28-54.33,29.99s-35.23,22.17-52.41,33.93c-17.18,11.76-34.15,23.85-50.92,36.18-16.8,12.36-33.4,25-49.77,37.92-16.39,12.94-32.55,26.17-48.45,39.69-15.96,13.57-31.66,27.45-47.08,41.63s-30.44,28.57-45.21,43.31c-14.88,14.87-29.34,30.15-43.87,45.35-14.58,15.25-29.13,30.54-43.27,46.21s-27.78,31.61-40.64,48.26c-12.68,16.42-24.48,33.55-36.22,50.66-10.96,15.97-21.64,32.15-31.68,48.72s-19.28,33.31-27.77,50.58c-4.35,8.85-8.49,17.8-12.44,26.85-.76,1.75,1.82,3.28,2.59,1.51,7.92-18.15,16.65-35.93,26.22-53.27s19.08-32.82,29.46-48.71c10.89-16.68,22.26-33.04,33.74-49.31,12.14-17.19,24.88-33.85,38.48-49.92s27.66-31.43,42-46.68c14.38-15.29,28.91-30.46,43.44-45.61,14.39-15.01,29.11-29.71,44.12-44.1s30.21-28.37,45.72-42.1,31.53-27.37,47.67-40.61c16.05-13.16,32.33-26.03,48.83-38.62s33.3-24.95,50.26-37.01c16.85-11.99,33.88-23.74,51.21-35.02,17.24-11.22,34.8-21.97,52.77-31.98,18.06-10.05,36.55-19.36,55.51-27.6,16.11-7,32.53-13.43,49.53-17.91,15.65-4.12,31.66-6.9,47.76-8.56,17.08-1.76,34.29-2.29,51.45-1.53s34.02,2.79,50.67,6.47,31.45,8.47,46.08,15.56c16.23,7.87,31.43,18.34,44.45,30.82,6.34,6.07,12.16,12.68,17.37,19.74,1.13,1.54,3.74.04,2.59-1.51h0Z"/>
  <circle cx="1858.85" cy="998.77" r="15.34"/>
  <path class="cls-1" d="M1952.36,1603c30.63,3.68,61.51,5.26,92.36,4.78s59.27-2.85,88.67-6.86c28.86-3.94,57.49-9.47,85.8-16.29,28.02-6.75,55.73-14.75,83.13-23.67,26.91-8.76,53.59-18.34,79.95-28.65,23.34-9.13,46.32-19.13,69.35-29.02,25.05-10.76,50.12-21.47,75.53-31.35s48.85-18.2,74.04-24.84c12.07-3.18,24.25-5.65,36.56-7.69,14.96-2.49,29.99-4.67,45.09-6.05,29.65-2.72,59.51-1.97,88.71,4.15,11.15,2.33,22.29,5,32.53,10.1s20.09,12.51,27.61,21.61c16.68,20.19,21.86,49.04,13.71,73.87-3.68,11.22-10.22,21.25-18.8,29.33-8.21,7.74-18.06,13.63-28.43,17.99-22.66,9.54-47.56,12.11-71.95,11.44-27.22-.75-54.21-5.82-80.06-14.28-26.08-8.54-50.98-20.52-74.25-35.06-11.73-7.33-23.06-15.32-33.92-23.9-9.82-7.77-19.18-16.07-28.39-24.54-18.59-17.08-36.52-34.9-53.82-53.28-18.63-19.8-36.55-40.28-53.45-61.57-16.04-20.2-31.22-41.16-44.59-63.24-5.79-9.56-11.22-19.34-16.09-29.4-.84-1.74-3.43-.22-2.59,1.51,10.66,22.02,23.89,42.75,38.07,62.65,15.72,22.06,32.77,43.17,50.59,63.56s35.99,39.61,55.05,58.37c17.88,17.6,36.22,34.99,56.07,50.37,21.83,16.93,45.45,31.57,70.53,43.19s51.4,20.19,78.58,24.8c25.81,4.38,52.74,5.66,78.64,1.36,22.78-3.78,45.99-12.25,62.85-28.56,8.5-8.22,14.96-18.35,18.71-29.58,4.19-12.55,5-26.13,2.84-39.15s-7.42-25.41-15.46-35.84c-7.35-9.52-16.84-17.27-27.42-22.95-9.96-5.34-20.62-8.33-31.6-10.8-14.75-3.33-29.77-5.42-44.87-6.27-29.99-1.69-59.94,1.66-89.52,6.42-12.72,2.04-25.34,4.36-37.83,7.52-12.38,3.14-24.6,6.84-36.72,10.87-25.75,8.57-50.99,18.6-76.03,29.03-24.87,10.36-49.55,21.18-74.36,31.68-24.02,10.16-48.27,19.68-72.79,28.55-27.26,9.85-54.8,18.95-82.66,26.96-28.1,8.08-56.54,15.04-85.26,20.54-28.99,5.56-58.27,9.62-87.71,11.9s-60.83,2.8-91.22,1.2c-15.1-.8-30.18-2.11-45.2-3.91-1.91-.23-1.9,2.77,0,3h0Z"/>
  <circle cx="2839.4" cy="1559.82" r="15.34"/>
  <path class="cls-1" d="M543.13,820.36c-.02,8.56,1.48,17.1,3.69,25.35,2.62,9.73,6.29,19.17,10.49,28.33,4.72,10.3,10.18,20.27,16.09,29.93,6.37,10.42,13.29,20.5,20.62,30.27s15.59,19.86,24.01,29.27c8.31,9.28,17.01,18.22,26.11,26.72s17.85,15.92,27.39,23.12c8.7,6.57,17.77,12.69,27.31,17.99,10.24,5.69,21.11,10.24,31.91,14.74,12.89,5.37,25.95,10.34,39.14,14.92,14.11,4.9,28.38,9.35,42.77,13.33,15.15,4.19,30.44,7.87,45.84,11.01,15.98,3.25,32.09,5.91,48.27,7.95,16.53,2.08,33.15,3.52,49.79,4.2,10.34.42,20.71.17,31.04-.53,11.82-.8,23.61-2.22,35.27-4.31,11.79-2.11,23.48-4.92,34.82-8.78,10.43-3.55,20.69-7.98,29.97-13.98,8.89-5.75,16.46-12.94,22.02-21.99,7.65-12.46,11.92-28.05,7.84-42.47-3.46-12.2-12.78-23.32-25.36-26.58-12.75-3.3-26.21,2.27-35.03,11.55-10.16,10.69-13.48,25.87-12.13,40.23s6.76,27.84,14.4,39.8,16.88,21.64,27.53,30.22c11.19,9.01,23.57,16.35,36.62,22.33,14.86,6.82,30.42,11.98,46.13,16.44,15.8,4.48,31.77,8.37,47.68,12.42,16.06,4.09,32.12,8.2,48.11,12.56s32.04,9,47.87,14.11c15.74,5.08,31.32,10.63,46.63,16.9,12.63,5.17,24.98,10.82,36.75,17.76,11.46,6.76,22.42,14.35,32.95,22.47,11.24,8.68,22,17.98,32.29,27.77s20.14,20.11,29.4,30.91c8.74,10.2,16.97,20.85,24.41,32.05s13.49,22.59,19.14,34.53c6.81,14.41,12.87,29.17,18.15,44.21s9.79,30.32,13.52,45.81,6.72,31.34,8.92,47.22,3.5,31.02,4.18,46.61c.08,1.92,3.08,1.93,3,0-.7-16.01-2.14-31.98-4.35-47.86s-5.11-31.19-8.8-46.55-8.14-30.5-13.35-45.39c-5.17-14.79-11.1-29.33-17.73-43.53-5.6-11.99-11.68-23.67-18.91-34.76-7.19-11.03-15.18-21.54-23.65-31.62-9.04-10.76-18.67-21.03-28.75-30.81s-20.63-19.08-31.63-27.8c-10.49-8.31-21.4-16.13-32.8-23.16s-22.6-12.57-34.55-17.67c-14.95-6.38-30.19-12.05-45.6-17.22-15.62-5.24-31.41-9.96-47.27-14.39-15.77-4.41-31.61-8.53-47.47-12.59-15.78-4.04-31.6-7.93-47.33-12.13-15.6-4.17-31.11-8.79-46.09-14.86-13.67-5.54-26.84-12.36-38.84-20.96-10.97-7.87-21.03-17.25-29.1-28.11s-14.59-23.84-17.34-37.45-1.64-30.01,7.22-41.89c7.45-9.99,20.48-17.04,33.13-14.68s22.1,13.34,25.35,25.44c3.86,14.39-1.05,29.75-9.06,41.8-5.57,8.39-13.21,14.92-21.77,20.14-9.36,5.71-19.58,9.91-29.99,13.27-11.33,3.65-22.97,6.31-34.7,8.29-11.41,1.93-22.92,3.21-34.47,3.89-10.59.63-21.19.7-31.79.19-16.53-.79-33.02-2.3-49.43-4.46-16.02-2.1-31.96-4.85-47.77-8.16-15.12-3.16-30.13-6.85-45.01-11.03s-28.27-8.43-42.19-13.31c-13.01-4.56-25.88-9.51-38.6-14.84-10.48-4.4-20.99-8.88-30.9-14.49-9.45-5.35-18.45-11.48-27.08-18.06-9.37-7.14-18.31-14.86-26.88-22.94-9.04-8.51-17.67-17.44-25.92-26.72s-16.12-18.91-23.54-28.87-14.02-19.68-20.28-30c-5.78-9.53-11.11-19.34-15.73-29.49-4.09-8.98-7.62-18.26-10.13-27.82-2.04-7.77-3.4-15.75-3.39-23.8,0-1.93-3-1.93-3,0h0Z"/>
  <circle cx="680.46" cy="1016.55" r="15.34"/>
  <circle cx="1580.14" cy="1534.43" r="15.34"/>
</svg>